<svg width="128" height="128" viewBox="0 0 128 128" fill="none" xmlns="http://www.w3.org/2000/svg">
<path fill-rule="evenodd" clip-rule="evenodd" d="M59.6297 8.12447C55.3812 10.4597 54.0139 13.3157 55.9774 15.7538C56.4796 16.3777 56.8905 17.2717 56.8905 17.7408C56.8905 18.8738 59.2412 19.8156 61.4476 19.5667C62.9898 19.3924 63.1957 19.4914 63.4636 20.5348C63.9576 22.4571 62.6583 23.6606 59.9657 23.7752C56.938 23.9036 49.5888 27.3508 49.5869 28.6435C49.5865 28.9213 48.7145 29.9179 47.649 30.8578C46.0767 32.2455 45.6836 32.423 45.5612 31.8018C45.3891 30.9283 44.9595 30.8284 44.2711 31.5008C43.9406 31.8237 43.616 31.755 43.2106 31.2779C42.2843 30.1881 36.0732 30.3299 34.2922 31.4821C33.539 31.9695 32.5752 32.3694 32.1507 32.3708C30.162 32.3784 30.9436 34.4447 33.0272 34.6886C33.9371 34.7947 34.3461 35.2232 34.8195 36.5649C35.2756 37.8576 35.3016 38.4573 34.9209 38.9059C34.5369 39.3576 34.552 39.5083 34.9807 39.5083C35.5459 39.5083 35.4468 40.9504 34.7132 43.41C34.4904 44.1573 34.6022 44.4132 35.1519 44.4132C35.5582 44.4132 35.8901 44.6892 35.8901 45.0263C35.8901 45.3634 36.0038 46.2165 36.1426 46.9214C36.3553 48.0005 36.1827 48.3189 35.0546 48.9329C33.9713 49.5228 33.7581 49.8862 33.9425 50.828C34.0781 51.5218 33.964 51.9935 33.6609 51.9935C32.7432 51.9935 33.1258 52.7311 34.3178 53.2617C34.9597 53.5471 35.3578 53.9823 35.2021 54.228C35.0464 54.4741 35.2286 54.7911 35.607 54.9329C36.1298 55.1291 36.1941 55.4484 35.8755 56.2675C35.6098 56.9497 35.6194 57.3444 35.9015 57.3444C36.8095 57.3444 36.3133 59.8129 35.1975 60.8469C34.0503 61.9095 33.749 62.8985 34.4443 63.3181C34.6538 63.4443 34.7328 64.1586 34.6209 64.9051C34.4607 65.9712 34.5862 66.2624 35.2067 66.2624C35.8029 66.2624 35.9294 66.5081 35.7212 67.2657C35.5701 67.8177 35.4432 68.52 35.44 68.8263C35.4363 69.1331 35.0798 69.3837 34.647 69.3837C34.0033 69.3837 34.0462 69.5103 34.883 70.0829C35.4454 70.4677 35.7924 70.9608 35.6545 71.1789C35.5167 71.3969 36.0257 71.8892 36.7858 72.2731C38.7493 73.2648 40.4198 76.6786 39.9541 78.7476C39.761 79.606 39.777 80.4813 39.9893 80.6931C40.2016 80.9044 39.8482 82.61 39.2041 84.4832C37.3985 89.7315 36.7187 91.2141 35.3386 92.9099C33.5974 95.0502 33.6079 98.1425 35.3742 103.264C36.0951 105.353 37.0196 108.439 37.4291 110.121C38.9447 116.346 42.76 122 45.4457 122C47.7978 122 49.0834 116.109 47.5257 112.468C47.1454 111.579 46.6761 110.852 46.4825 110.852C46.289 110.852 45.7667 110.251 45.3216 109.515C44.5057 108.165 44.9162 107.648 45.8918 108.796C46.7263 109.779 48.6328 109.92 50.9086 109.167C55.3173 107.709 57.1621 105.169 58.7719 98.3396C60.4035 91.4188 61.364 90.0302 64.2361 90.4422C64.9547 90.5452 65.6166 90.4137 65.7075 90.1506C65.8175 89.8318 66.1124 89.8657 66.5909 90.2514C67.0739 90.6402 67.4067 90.6768 67.6053 90.3629C67.7678 90.1056 68.2723 89.8951 68.7265 89.8951C71.2059 89.8951 75.9347 87.1261 76.6756 85.2404C76.903 84.6616 77.3134 84.5653 78.5698 84.7958C80.0713 85.0709 80.1736 85.0152 80.1736 83.925C80.1736 83.2846 79.9681 82.7607 79.717 82.7607C79.1249 82.7607 77.4344 81.1095 77.4344 80.5312C77.4344 80.286 77.859 80.0853 78.3776 80.0853C79.5276 80.0853 80.9725 79.3866 82.3421 78.1684C83.6144 77.0362 83.6473 76.5181 82.4457 76.5181C81.5655 76.5181 81.5573 76.4659 82.27 75.4033C82.9392 74.4054 82.9429 74.2886 82.3033 74.2886C81.9102 74.2886 81.3857 73.9372 81.1378 73.5083C80.7766 72.8831 80.5721 72.839 80.1106 73.2853C79.7937 73.5921 79.2605 73.8427 78.9254 73.8427C77.6243 73.8427 79.413 66.2793 80.721 66.2481C81.1615 66.2379 81.1378 66.0938 80.6301 65.6907C79.3349 64.6634 79.6969 63.4278 81.6934 62.0633C82.7397 61.3477 83.3469 60.6815 83.0424 60.582C82.6105 60.4416 82.6096 60.2137 83.0392 59.5422C83.8404 58.2888 84.1157 58.4627 84.6768 60.5771C85.6355 64.1903 87.6296 66.8724 90.6742 68.6439C93.8672 70.5016 94.3023 70.5756 95.6668 69.4952C96.3827 68.928 96.7191 68.0446 96.8977 66.2624C97.1414 63.8269 97.1268 63.7916 94.7899 61.1345C91.7699 57.702 90.0488 55.2254 89.38 53.3522C88.6002 51.1673 88.6888 50.9591 90.2665 51.2676C91.5964 51.5271 91.6672 51.4754 91.401 50.44C91.1358 49.4073 91.1938 49.3641 92.2949 49.7725C94.232 50.4922 94.531 50.275 93.2281 49.0952C92.5506 48.4821 91.8242 47.9804 91.6138 47.9804C91.4033 47.9804 91.26 46.5941 91.2951 44.8997C91.3476 42.3523 91.4663 41.9059 91.9817 42.3215C92.4766 42.7206 92.5697 42.6443 92.4332 41.9528C92.3387 41.473 91.6311 40.6775 90.86 40.1839C89.7434 39.4691 89.4694 38.9924 89.5105 37.8349C89.5621 36.3848 90.4359 35.3481 93.6887 32.8764L95.0108 31.8714L92.861 32.0658C91.6512 32.1755 90.6446 32.0653 90.5592 31.8147C90.4738 31.5655 89.5429 31.8 88.4427 32.348C86.5746 33.2791 86.4353 33.2893 85.6049 32.5554C84.1773 31.2935 83.2442 29.1594 83.9336 28.7322C84.3901 28.4491 84.3915 28.3728 83.9399 28.3675C83.6263 28.3639 83.3693 28.0598 83.3693 27.6919C83.3693 27.1961 82.8361 27.0231 81.3099 27.0231C79.5527 27.0231 75.1517 25.5414 75.1517 24.9497C75.1517 24.2487 77.1609 21.1225 77.9014 20.6703C78.3981 20.3676 78.804 19.6577 78.804 19.0923C78.804 18.5269 79.2879 17.5918 79.8791 17.0144C81.1985 15.7257 81.6454 14.759 81.8198 12.8167C81.9458 11.4103 81.9047 11.3622 81.1483 12.031C80.7045 12.423 79.6878 12.8715 78.888 13.0276C77.5896 13.2813 77.4285 13.1988 77.3805 12.2526C77.3504 11.6703 77.3595 10.943 77.4001 10.6362C77.4919 9.94598 76.9007 9.92904 75.4366 10.5809C73.8643 11.2806 71.0046 10.7009 70.7161 9.62404C70.5403 8.96723 70.2093 8.83702 69.21 9.03233C67.6436 9.33822 64.825 8.48788 64.478 7.605C64.0936 6.62714 61.9324 6.85901 59.6297 8.12447ZM64.0106 8.96411C65.1911 9.57722 66.7013 10.0789 67.3661 10.0789C68.1741 10.0789 69.1639 10.6679 70.3509 11.8553L72.1268 13.6318L70.6074 13.206C69.7715 12.9719 68.7831 12.9469 68.4111 13.1502C67.8943 13.4329 68.0983 13.6501 69.2744 14.0701C70.6599 14.5646 70.7229 14.6578 69.9016 14.9936C69.0972 15.3227 69.1379 15.3708 70.244 15.3985C72.2322 15.448 71.704 16.1904 69.4451 16.5212C67.8755 16.7509 67.3907 17.0135 67.3907 17.6338C67.3907 18.3298 66.8429 18.4899 63.5504 18.7579C59.4439 19.0919 57.8118 18.6812 57.7935 17.3091C57.788 16.8887 57.3817 16.0428 56.8905 15.4297C55.7775 14.0398 55.7277 12.1706 56.7764 11.1455C57.4648 10.4726 61.4225 7.84935 61.7494 7.84935C61.8124 7.84935 62.83 8.35099 64.0106 8.96411ZM56.3358 32.3191C56.4075 32.5233 56.943 32.6009 57.5269 32.4921C58.6828 32.2763 59.5242 33.4472 58.6093 33.9992C58.3213 34.1731 58.0049 34.079 57.9067 33.7905C57.8081 33.502 57.1284 33.2657 56.3961 33.2657C55.6638 33.2657 55.0644 33.0651 55.0644 32.8198C55.0644 32.5746 54.6535 32.3739 54.1513 32.3739C53.6491 32.3739 53.2383 32.1483 53.2383 31.8723C53.2383 31.2966 56.1231 31.7131 56.3358 32.3191ZM66.5279 33.2795C67.3793 33.2871 68.8973 33.7879 69.9016 34.3921C70.906 34.9963 72.1898 35.4916 72.7549 35.493C73.5315 35.4948 73.7821 35.7538 73.7821 36.556C73.7821 37.314 74.1729 37.7747 75.1517 38.1706C76.5966 38.7552 76.5268 38.4948 76.7172 44.0244C76.7715 45.6056 75.2503 46.2445 73.143 45.5258C72.1637 45.1913 71.2228 44.6973 71.0521 44.4275C70.8813 44.1577 70.3988 44.0659 69.9792 44.2228C69.5601 44.3802 69.2168 44.2982 69.2168 44.0413C69.2168 43.0367 70.1979 43.084 72.2194 44.1863C75.3649 45.9016 76.0931 45.4812 75.9023 42.0598C75.7621 39.5476 75.6288 39.2412 74.3149 38.4096C73.5265 37.9102 72.8782 37.1508 72.875 36.7214C72.8714 36.2153 72.508 35.9362 71.8419 35.9273C71.2772 35.9197 69.997 35.423 68.9982 34.8237C67.5761 33.9702 66.8077 33.7923 65.46 34.0028C64.0786 34.2182 63.7385 34.1321 63.7385 33.5662C63.7385 32.9317 63.6061 32.9353 62.4163 33.6024C61.3065 34.2244 60.9765 34.2485 60.362 33.75C59.2366 32.8376 59.4904 32.3971 60.9125 32.7953C61.7946 33.0428 62.4702 32.9585 63.0756 32.526C63.8389 31.9806 64.0238 31.9882 64.468 32.5817C64.7501 32.958 65.6769 33.2719 66.5279 33.2795ZM49.586 33.3865C49.9855 33.535 49.7476 33.6559 49.0154 33.6764C47.8051 33.7103 47.4216 33.2992 48.0712 32.6646C48.2424 32.4974 48.499 32.534 48.6419 32.7462C48.7843 32.9585 49.2094 33.2465 49.586 33.3865ZM52.1672 33.3255C51.5628 33.6684 51.1816 33.6648 50.8205 33.3121C50.453 32.9531 50.6812 32.8234 51.6632 32.8332C52.8438 32.8452 52.9059 32.9059 52.1672 33.3255ZM55.1981 33.8231C56.5787 34.4496 56.6832 34.7256 55.8633 35.5808C54.375 37.133 52.3252 40.4193 52.3252 41.2531C52.3252 41.765 52.1549 42.1837 51.9467 42.1837C51.5062 42.1837 49.7645 45.8749 49.3915 47.5992C49.113 48.8847 50.0544 51.462 51.5569 53.527C52.081 54.2476 52.4704 55.3061 52.422 55.8791C52.3594 56.614 52.6813 57.0759 53.5131 57.446C54.5485 57.9071 54.7882 57.8469 55.478 56.9542L56.2632 55.9375L58.4491 57.9543C59.6516 59.0638 60.5537 60.2106 60.4537 60.5031C60.2241 61.1769 56.4061 62.6568 55.6392 62.3692C55.3232 62.2506 55.0644 61.8578 55.0644 61.4957C55.0644 60.5036 54.0011 61.0436 53.3378 62.3728C52.4868 64.077 49.224 67.16 48.3127 67.1203C46.8582 67.057 44.2907 65.9333 45.0207 65.6796C46.8792 65.033 46.9413 64.9323 45.3681 65.1146C43.3562 65.3483 42.261 64.246 42.3135 62.0384C42.334 61.1862 42.46 60.9352 42.6559 61.3575C44.178 64.638 45.8562 65.2355 48.1813 63.3243C50.7853 61.1845 49.5846 58.6821 45.9543 58.6821C44.7879 58.6821 43.5927 58.9175 43.2978 59.2056C42.8873 59.6064 42.4847 59.437 41.5803 58.4841C40.3787 57.2177 40.3559 56.0067 41.5337 56.0067C41.8912 56.0067 42.2907 55.7342 42.4217 55.4011C42.5527 55.068 43.2421 54.6805 43.9543 54.5401C44.8454 54.364 45.5338 53.7647 46.162 52.6178C47.0783 50.9457 47.1367 50.061 46.8249 42.5485C46.7391 40.4786 46.9692 39.548 48.0817 37.4648C49.2231 35.328 49.77 34.7885 51.4555 34.1366C54.0052 33.1498 53.7592 33.1703 55.1981 33.8231ZM42.1058 35.3837C42.0391 36.0584 42.1793 36.861 42.4176 37.1673C42.7202 37.5579 42.628 37.7247 42.109 37.7247C41.6063 37.7247 41.3675 38.1184 41.3653 38.9509C41.3639 39.6256 40.9877 40.7323 40.5298 41.4105C39.7263 42.6002 39.6702 42.6149 38.9347 41.8212C38.5156 41.3691 38.1727 40.3488 38.1727 39.5551C38.1727 38.6763 37.6943 37.4982 36.9492 36.5444C35.429 34.5976 35.9061 34.174 39.6291 34.1642C42.1893 34.1575 42.2249 34.1753 42.1058 35.3837ZM66.8228 39.4602C67.8326 41.6103 68.2271 45.305 67.4464 45.305C66.7265 45.305 65.8134 43.9241 66.3188 43.599C66.5758 43.4336 66.9027 42.8468 67.0456 42.2952C67.3204 41.234 67.4208 41.267 63.5102 41.1203C62.4469 41.0806 62.1073 40.8389 61.9913 40.0412C61.7558 38.4168 62.6501 37.6953 65.3391 37.3395C65.5915 37.306 66.2594 38.2602 66.8228 39.4602ZM71.8688 46.6097C71.9912 46.9682 71.6899 47.1109 71.0156 47.0146C70.4422 46.9326 69.8879 46.6133 69.7843 46.3052C69.6606 45.9387 69.956 45.7986 70.6376 45.9003C71.2105 45.9855 71.7647 46.3047 71.8688 46.6097ZM45.0207 48.8722C45.0207 49.4666 44.7162 49.764 44.1076 49.764C43.6055 49.764 43.1946 49.5634 43.1946 49.3181C43.1946 49.0729 43.5027 48.8722 43.8794 48.8722C44.256 48.8722 44.5642 48.6716 44.5642 48.4263C44.5642 48.1811 44.6669 47.9804 44.7924 47.9804C44.918 47.9804 45.0207 48.3817 45.0207 48.8722ZM55.257 48.7608C55.9797 47.8092 56.434 47.7602 56.434 48.6337C56.434 49.4729 54.8872 50.2866 53.9559 49.9375C53.5615 49.7899 53.2446 49.2388 53.2529 48.7131C53.267 47.7637 53.272 47.7633 53.966 48.6493C54.6252 49.4911 54.6973 49.4974 55.257 48.7608ZM73.7821 50.2099C73.7821 50.4552 74.2181 50.6558 74.7509 50.6558C75.5608 50.6558 75.6265 50.766 75.1517 51.3247C74.839 51.6926 74.3245 51.9935 74.0077 51.9935C73.6913 51.9935 73.3247 52.3949 73.1932 52.8853C73.0211 53.5288 72.5705 53.7771 71.5748 53.7771C70.8161 53.7771 69.8724 54.0924 69.4775 54.4777C68.8256 55.1149 68.7603 55.0966 68.7603 54.2752C68.7603 53.5975 69.1557 53.2991 70.3417 53.082C71.2119 52.9224 72.1615 52.5121 72.4523 52.1697C72.7431 51.8277 73.4178 51.5396 73.952 51.5298C74.8226 51.5138 74.7929 51.4429 73.668 50.8467C72.2605 50.1007 72.0829 49.764 73.0973 49.764C73.474 49.764 73.7821 49.9647 73.7821 50.2099ZM89.2585 54.5807C89.994 56.0035 91.4864 58.2366 92.5748 59.5431C96.3302 64.0489 96.5553 64.444 96.1508 65.8205C95.9462 66.517 95.8974 67.2023 96.0417 67.3437C96.1859 67.4846 96.1042 67.6001 95.86 67.6001C95.6153 67.6001 95.1738 67.0481 94.8784 66.3739C94.4552 65.4076 94.379 65.3603 94.5191 66.1505C94.6168 66.702 94.5105 67.2657 94.2831 67.403C94.0558 67.5403 93.8695 68.0491 93.8695 68.5338C93.8695 69.282 93.7293 69.3418 92.9404 68.9293C92.1858 68.5347 92.0648 68.165 92.2967 66.9584C92.667 65.0295 91.8402 64.5341 91.0737 66.2254C90.6067 67.2563 90.319 67.4458 89.7078 67.1265C88.6705 66.5843 86.8974 63.414 85.7085 59.9765C84.5156 56.5252 84.512 56.206 85.6519 54.7907C86.1541 54.1669 86.565 53.2826 86.565 52.8251C86.565 51.1535 87.9556 52.0595 89.2585 54.5807ZM73.2375 56.1971L74.7472 56.7058L72.8951 57.7225C71.8766 58.2816 71.043 58.5376 71.043 58.291C71.043 58.0444 71.2484 57.7189 71.4995 57.5673C72.2961 57.0862 71.9944 56.4789 70.8147 56.1899C70.187 56.0361 69.6734 55.7177 69.6734 55.4823C69.6734 55.0622 70.1596 55.1599 73.2375 56.1971ZM43.6602 56.6648C43.3 57.0884 43.2653 57.3444 43.5685 57.3444C44.12 57.3444 44.7632 56.4985 44.4468 56.189C44.3318 56.0771 43.978 56.2911 43.6602 56.6648ZM51.0277 57.7903C51.0277 58.4034 51.1314 58.6544 51.2578 58.3476C51.3847 58.0413 51.3847 57.5397 51.2578 57.2329C51.1314 56.9265 51.0277 57.1771 51.0277 57.7903ZM41.347 59.4833C41.61 60.0465 41.825 61.398 41.825 62.486C41.825 64.0182 42.1103 64.7766 43.09 65.8472C44.2473 67.1123 44.6144 67.2362 47.4047 67.3036C50.4023 67.3758 50.4877 67.3455 52.417 65.5226C53.7939 64.2215 55.4018 63.311 57.8036 62.4722C63.139 60.6092 63.0391 60.6097 64.321 62.4526L65.4537 64.0801L65.7486 62.9319C65.9969 61.9648 66.1809 61.8555 66.9155 62.2395C68.1696 62.8949 71.3265 62.8004 72.0587 62.0852C72.4021 61.7499 72.9631 60.6463 73.3055 59.6327C73.8059 58.1523 74.1442 57.7903 75.0266 57.7903C75.6306 57.7903 76.5222 57.9981 77.008 58.2518C77.8407 58.687 77.848 58.777 77.1413 59.8307C76.5136 60.7662 76.4839 61.1448 76.9573 62.1561C77.2682 62.8205 77.6124 64.267 77.7225 65.3706C77.8325 66.4742 77.9863 67.7775 78.0639 68.2671C78.142 68.7563 77.932 70.1609 77.5974 71.3885C76.7642 74.4433 76.8094 74.7345 78.1192 74.7345C78.7469 74.7345 79.2605 74.9352 79.2605 75.1804C79.2605 75.4256 79.5824 75.6263 79.9759 75.6263C80.474 75.6263 80.6068 75.8867 80.4137 76.482C80.2197 77.0782 80.3836 77.3956 80.9533 77.5294C82.0225 77.7804 78.8734 79.1935 77.2445 79.1935C76.1931 79.1935 76.1451 79.2858 76.5743 80.488C76.8286 81.2001 77.4294 82.1298 77.9092 82.5543C78.9925 83.5116 78.6743 84.0962 77.065 84.1051C75.5772 84.1136 74.4752 84.7276 74.8591 85.3344C75.0139 85.5788 74.529 86.0256 73.7821 86.3279C73.0353 86.6302 72.5217 87.0315 72.6408 87.2197C73.0033 87.7923 70.3148 88.6413 68.5973 88.4968C67.7094 88.4219 66.8484 88.4928 66.6835 88.6537C66.5187 88.8147 65.9088 88.7701 65.3281 88.5543C64.552 88.2663 64.206 88.3327 64.0197 88.8058C63.8809 89.1598 63.2787 89.4492 62.6821 89.4492C61.1317 89.4492 60.0917 90.7932 59.1554 94.005C56.7554 102.239 56.0204 104.248 54.8649 105.727C53.278 107.759 52.527 108.048 51.4048 107.056C50.447 106.209 50.5602 106.113 49.8284 108.4C49.45 109.583 48.3201 109.186 48.5611 107.954C48.7853 106.81 48.0502 106.399 47.5645 107.397C47.4152 107.704 47.3819 107.491 47.4905 106.925C47.6453 106.119 47.559 106.001 47.0924 106.379C45.8858 107.357 45.9105 105.475 47.1262 103.797L48.315 102.157L46.6679 103.904C45.5708 105.067 45.0207 105.407 45.0207 104.922C45.0207 104.256 46.22 102.721 49.0774 99.7304C50.5557 98.1831 52.1983 94.6489 52.8201 91.6787C53.4259 88.7839 53.735 88.3996 57.4922 85.8695C59.0695 84.8074 61.0691 83.0354 61.9352 81.9322C62.8017 80.8286 64.1977 79.5293 65.0382 79.0441C66.3968 78.2602 66.4767 78.1135 65.7572 77.7207C64.9131 77.2592 64.683 77.4478 61.9123 80.8728L60.771 82.284L57.8036 81.8542C56.1715 81.6179 53.9929 81.3008 52.9625 81.1501C51.8691 80.99 50.6817 81.089 50.1092 81.3882C48.6474 82.1521 48.909 82.7892 50.4667 82.2591C51.2026 82.0085 52.3836 81.8685 53.0917 81.9478C54.8457 82.144 55.1027 83.735 53.4962 84.4498C52.7845 84.7668 52.4389 85.2069 52.5936 85.6007C52.7639 86.0345 52.3275 86.4051 51.23 86.7591C49.429 87.3392 47.3034 89.5224 47.3034 90.7909C47.3034 91.2462 46.8925 91.7461 46.3903 91.9017C45.8881 92.0573 45.4772 92.3743 45.4772 92.6062C45.4772 92.8381 44.571 93.4579 43.4639 93.9836C40.1454 95.5581 39.7254 97.5624 41.6584 102.594C43.6826 107.863 44.251 107.506 42.3276 102.173C40.7101 97.6872 41.1585 96.2314 44.6587 94.6092C46.4017 93.8012 49.1295 91.5075 49.1295 90.8494C49.1295 90.6108 48.8729 90.3308 48.5588 90.2278C47.5732 89.9036 48.8967 88.792 52.1033 87.25C53.7414 86.4621 55.0644 85.5333 55.0644 85.1713C55.0644 84.811 55.3725 84.4007 55.7492 84.2598C56.1258 84.1185 56.434 83.7167 56.434 83.3667C56.434 82.6466 58.7892 82.75 59.0385 83.4813C59.1193 83.7176 57.9405 84.6852 56.4198 85.6314C53.0004 87.7588 52.5644 88.429 52.0992 92.2727C51.8253 94.5365 49.5271 98.4194 46.5341 101.676C43.9702 104.465 43.8465 104.773 44.5528 106.587C44.8029 107.23 44.8194 107.731 44.5911 107.731C44.367 107.731 44.0921 107.481 43.9798 107.174C43.868 106.867 43.6717 106.717 43.5438 106.839C43.2252 107.145 44.7856 110.3 46.168 112.145C47.6042 114.061 47.6435 115.138 46.2762 115.106C45.7114 115.093 44.9408 114.903 44.5642 114.684C44.1875 114.465 44.5473 114.978 45.3631 115.823C47.16 117.685 47.3066 118.879 45.7384 118.879C45.0413 118.879 44.1811 118.341 43.4187 117.43C42.7527 116.633 42.4094 116.382 42.6563 116.872C42.9033 117.363 43.6392 118.326 44.2912 119.013C45.6133 120.405 45.716 120.662 44.9527 120.662C44.0127 120.662 41.4137 117.659 40.2527 115.232C39.6286 113.927 38.68 111.276 38.144 109.341C37.608 107.406 36.574 104.396 35.8467 102.653C33.9224 98.0408 34.0247 95.7445 36.2827 92.8345C37.7801 90.9055 38.2901 89.7458 39.2415 86.105C39.6597 84.5046 41.0822 82.8035 43.0416 81.5608C43.7369 81.1198 43.7566 81.0253 43.1576 81.0034C42.3007 80.9722 41.1315 79.0366 41.5607 78.3588C41.9396 77.7599 39.2356 72.6312 38.2599 72.0979C37.6477 71.763 37.6276 71.5855 38.1362 70.9876C38.6599 70.3709 38.6019 70.2755 37.7012 70.2755C36.7543 70.2755 36.7228 70.2059 37.3478 69.4952C38.7352 67.9171 38.8452 67.4409 37.7591 67.7182C36.8374 67.9537 36.773 67.8569 37.046 66.6432C37.2976 65.5244 37.1876 65.2689 36.364 65.0584C35.6687 64.881 35.4751 64.5965 35.7002 64.0859C35.8755 63.6886 36.0412 62.9431 36.0686 62.429C36.096 61.9148 36.3494 61.2125 36.632 60.8683C36.9145 60.5241 37.4756 59.6077 37.8792 58.8314C38.5503 57.5401 38.7083 57.4643 39.7405 57.9396C40.3609 58.2255 41.084 58.9202 41.347 59.4833ZM48.673 60.2561C48.673 60.7105 48.3862 60.7283 47.3317 60.3395C46.5939 60.0675 46.0753 59.7108 46.1794 59.5462C46.5053 59.0316 48.673 59.6483 48.673 60.2561ZM59.059 71.7612C58.0218 74.2351 59.2179 78.7476 60.9107 78.7476C61.501 78.7476 61.4768 78.6379 60.7779 78.1389C60.13 77.6761 59.8625 76.7388 59.6635 74.2373C59.4964 72.1376 59.2772 71.2404 59.059 71.7612ZM49.5367 103.384C49.1624 103.69 48.5584 104.331 48.194 104.806C47.6567 105.509 47.8115 105.472 49.0154 104.611C49.8312 104.028 50.4991 103.388 50.4991 103.188C50.4991 102.697 50.3338 102.731 49.5367 103.384Z" fill="black"/>
</svg>
