<svg xmlns="http://www.w3.org/2000/svg" xmlns:xlink="http://www.w3.org/1999/xlink" width="48" zoomAndPan="magnify" viewBox="0 0 36 36.000001" height="48" preserveAspectRatio="xMidYMid meet" version="1.0"><defs><clipPath id="14c86cafda"><path d="M 5.511719 0.46875 L 30.320312 0.46875 L 30.320312 34.765625 L 5.511719 34.765625 Z M 5.511719 0.46875 " clip-rule="nonzero"/></clipPath><clipPath id="da36cfc61b"><path d="M 12.164062 5.398438 L 23.984375 5.398438 L 23.984375 17.550781 L 12.164062 17.550781 Z M 12.164062 5.398438 " clip-rule="nonzero"/></clipPath><clipPath id="0d6a105e83"><path d="M 18 5.398438 C 14.777344 5.398438 12.164062 8.113281 12.164062 11.457031 C 12.164062 14.800781 14.777344 17.511719 18 17.511719 C 21.222656 17.511719 23.835938 14.800781 23.835938 11.457031 C 23.835938 8.113281 21.222656 5.398438 18 5.398438 " clip-rule="nonzero"/></clipPath></defs><path fill="#000000" d="M 17.976562 18.085938 C 21.523438 18.085938 24.414062 15.160156 24.414062 11.566406 C 24.414062 7.972656 21.523438 5.050781 17.976562 5.050781 C 14.425781 5.050781 11.539062 7.972656 11.539062 11.566406 C 11.539062 15.160156 14.425781 18.085938 17.976562 18.085938 Z M 17.976562 6.179688 C 20.90625 6.179688 23.289062 8.59375 23.289062 11.5625 C 23.289062 14.527344 20.90625 16.941406 17.976562 16.941406 C 15.046875 16.941406 12.664062 14.527344 12.664062 11.5625 C 12.664062 8.59375 15.046875 6.179688 17.976562 6.179688 Z M 17.976562 6.179688 " fill-opacity="1" fill-rule="nonzero"/><g clip-path="url(#14c86cafda)"><path fill="#000000" d="M 25.347656 19.175781 C 26 19.035156 26.683594 18.828125 27.082031 18.265625 C 27.554688 17.609375 27.449219 16.742188 27.355469 15.980469 C 27.300781 15.488281 27.238281 14.984375 27.34375 14.648438 C 27.441406 14.34375 27.769531 13.980469 28.09375 13.632812 C 28.621094 13.054688 29.226562 12.40625 29.226562 11.566406 C 29.226562 10.726562 28.628906 10.074219 28.09375 9.503906 C 27.769531 9.15625 27.441406 8.792969 27.34375 8.488281 C 27.238281 8.152344 27.292969 7.648438 27.355469 7.15625 C 27.449219 6.394531 27.554688 5.527344 27.082031 4.871094 C 26.605469 4.210938 25.753906 4.039062 25.007812 3.894531 C 24.53125 3.804688 24.039062 3.703125 23.773438 3.503906 C 23.503906 3.304688 23.265625 2.871094 23.035156 2.445312 C 22.664062 1.761719 22.242188 0.984375 21.460938 0.730469 C 20.714844 0.480469 19.9375 0.851562 19.253906 1.171875 C 18.804688 1.382812 18.339844 1.597656 17.984375 1.597656 C 17.625 1.597656 17.160156 1.375 16.710938 1.171875 C 16.03125 0.851562 15.257812 0.488281 14.503906 0.730469 C 13.726562 0.984375 13.304688 1.761719 12.929688 2.445312 C 12.699219 2.871094 12.460938 3.304688 12.191406 3.503906 C 11.917969 3.703125 11.425781 3.804688 10.957031 3.894531 C 10.203125 4.046875 9.355469 4.214844 8.882812 4.871094 C 8.414062 5.527344 8.519531 6.394531 8.609375 7.15625 C 8.664062 7.648438 8.730469 8.152344 8.625 8.488281 C 8.523438 8.792969 8.195312 9.15625 7.871094 9.503906 C 7.34375 10.082031 6.742188 10.726562 6.742188 11.566406 C 6.742188 12.40625 7.335938 13.0625 7.871094 13.632812 C 8.195312 13.980469 8.523438 14.34375 8.625 14.648438 C 8.730469 14.984375 8.671875 15.488281 8.609375 15.980469 C 8.519531 16.742188 8.414062 17.609375 8.882812 18.265625 C 9.269531 18.796875 9.902344 19.011719 10.527344 19.15625 L 5.609375 30.648438 C 5.511719 30.867188 5.566406 31.132812 5.75 31.296875 C 5.925781 31.460938 6.183594 31.488281 6.394531 31.375 L 11.644531 28.441406 L 13.128906 34.328125 C 13.183594 34.5625 13.386719 34.734375 13.625 34.753906 C 13.640625 34.753906 13.65625 34.753906 13.667969 34.753906 C 13.894531 34.753906 14.097656 34.617188 14.179688 34.414062 L 17.917969 25.660156 L 21.65625 34.414062 C 21.75 34.617188 21.953125 34.753906 22.171875 34.753906 C 22.183594 34.753906 22.199219 34.753906 22.210938 34.753906 C 22.453125 34.734375 22.65625 34.5625 22.710938 34.328125 L 24.195312 28.441406 L 29.441406 31.375 C 29.652344 31.496094 29.914062 31.460938 30.089844 31.296875 C 30.265625 31.132812 30.320312 30.867188 30.230469 30.648438 Z M 9.777344 17.597656 C 9.566406 17.304688 9.636719 16.699219 9.707031 16.117188 C 9.777344 15.503906 9.851562 14.871094 9.671875 14.292969 C 9.496094 13.746094 9.074219 13.289062 8.664062 12.847656 C 8.257812 12.40625 7.835938 11.953125 7.835938 11.5625 C 7.835938 11.167969 8.257812 10.714844 8.664062 10.273438 C 9.074219 9.832031 9.496094 9.375 9.671875 8.828125 C 9.851562 8.257812 9.777344 7.625 9.707031 7.007812 C 9.636719 6.421875 9.566406 5.816406 9.777344 5.527344 C 9.992188 5.226562 10.582031 5.105469 11.160156 4.992188 C 11.757812 4.871094 12.367188 4.75 12.847656 4.402344 C 13.316406 4.058594 13.613281 3.503906 13.90625 2.972656 C 14.195312 2.453125 14.492188 1.910156 14.84375 1.789062 C 14.898438 1.773438 14.953125 1.761719 15.019531 1.761719 C 15.347656 1.761719 15.789062 1.976562 16.226562 2.175781 C 16.789062 2.4375 17.363281 2.707031 17.96875 2.707031 C 18.574219 2.707031 19.15625 2.4375 19.710938 2.175781 C 20.230469 1.933594 20.773438 1.675781 21.09375 1.78125 C 21.453125 1.894531 21.75 2.4375 22.03125 2.964844 C 22.316406 3.496094 22.621094 4.046875 23.089844 4.394531 C 23.5625 4.742188 24.179688 4.863281 24.777344 4.984375 C 25.355469 5.097656 25.945312 5.210938 26.160156 5.519531 C 26.371094 5.8125 26.300781 6.414062 26.230469 7 C 26.160156 7.609375 26.085938 8.246094 26.265625 8.820312 C 26.441406 9.367188 26.863281 9.824219 27.273438 10.265625 C 27.679688 10.707031 28.101562 11.164062 28.101562 11.554688 C 28.101562 11.945312 27.679688 12.402344 27.273438 12.84375 C 26.863281 13.28125 26.441406 13.738281 26.265625 14.285156 C 26.085938 14.855469 26.160156 15.488281 26.230469 16.109375 C 26.300781 16.691406 26.371094 17.296875 26.160156 17.589844 C 25.945312 17.886719 25.355469 18.007812 24.777344 18.121094 C 24.179688 18.242188 23.570312 18.363281 23.089844 18.714844 C 22.621094 19.054688 22.324219 19.609375 22.03125 20.144531 C 21.742188 20.664062 21.445312 21.203125 21.09375 21.324219 C 20.765625 21.433594 20.230469 21.183594 19.710938 20.933594 C 19.148438 20.671875 18.574219 20.398438 17.96875 20.398438 C 17.363281 20.398438 16.78125 20.671875 16.226562 20.933594 C 15.707031 21.175781 15.164062 21.433594 14.84375 21.324219 C 14.484375 21.210938 14.1875 20.671875 13.90625 20.144531 C 13.621094 19.609375 13.316406 19.0625 12.847656 18.714844 C 12.375 18.363281 11.757812 18.242188 11.160156 18.121094 C 10.589844 18.015625 9.992188 17.894531 9.777344 17.597656 Z M 13.808594 32.425781 L 12.550781 27.445312 C 12.507812 27.273438 12.390625 27.132812 12.226562 27.0625 C 12.066406 26.988281 11.882812 26.996094 11.734375 27.082031 L 7.289062 29.566406 L 11.628906 19.390625 C 11.847656 19.453125 12.046875 19.523438 12.179688 19.625 C 12.445312 19.824219 12.683594 20.257812 12.917969 20.683594 C 13.289062 21.367188 13.710938 22.144531 14.492188 22.398438 C 14.660156 22.457031 14.835938 22.476562 15.011719 22.476562 C 15.488281 22.476562 15.960938 22.292969 16.402344 22.09375 L 17.308594 24.214844 Z M 24.117188 27.089844 C 23.960938 27.003906 23.78125 26.996094 23.625 27.066406 C 23.464844 27.140625 23.34375 27.28125 23.300781 27.453125 L 22.042969 32.433594 L 17.441406 21.660156 C 17.632812 21.59375 17.8125 21.546875 17.976562 21.546875 C 18.335938 21.546875 18.796875 21.765625 19.246094 21.972656 C 19.929688 22.292969 20.710938 22.65625 21.453125 22.414062 C 22.234375 22.15625 22.65625 21.382812 23.027344 20.699219 C 23.261719 20.273438 23.5 19.835938 23.765625 19.636719 C 23.886719 19.554688 24.046875 19.480469 24.230469 19.425781 L 28.566406 29.574219 Z M 24.117188 27.089844 " fill-opacity="1" fill-rule="nonzero"/></g><g clip-path="url(#da36cfc61b)"><g clip-path="url(#0d6a105e83)"><path fill="#2b292e" d="M 12.164062 5.398438 L 23.820312 5.398438 L 23.820312 17.550781 L 12.164062 17.550781 Z M 12.164062 5.398438 " fill-opacity="1" fill-rule="nonzero"/></g></g></svg>